<svg
    width="20"
    height="21"
    viewBox="0 0 20 21"
    fill="none"
    xmlns="http://www.w3.org/2000/svg"
    aria-labelledby="titleId"
>
    <title id="titleId">Title</title>
    <path
        opacity="0.2"
        d="M14.1666 17.3058H5.83329C3.33329 17.3058 1.66663 16.0558 1.66663 13.1392V7.30583C1.66663 4.38916 3.33329 3.13916 5.83329 3.13916H14.1666C16.6666 3.13916 18.3333 4.38916 18.3333 7.30583V13.1392C18.3333 16.0558 16.6666 17.3058 14.1666 17.3058Z"
        fill="#484848"
    />
    <path
        d="M9.99998 10.9474C9.29998 10.9474 8.59165 10.7307 8.04998 10.2891L5.44164 8.20572C5.17498 7.98906 5.12498 7.59739 5.34165 7.33072C5.55831 7.06405 5.94998 7.01406 6.21665 7.23072L8.82497 9.31406C9.45831 9.82239 10.5333 9.82239 11.1666 9.31406L13.775 7.23072C14.0416 7.01406 14.4416 7.05572 14.65 7.33072C14.8666 7.59739 14.825 7.99739 14.55 8.20572L11.9416 10.2891C11.4083 10.7307 10.7 10.9474 9.99998 10.9474Z"
        fill="#484848"
    />
</svg>
