<svg width="20" height="21" viewBox="0 0 20 21" fill="none" xmlns="http://www.w3.org/2000/svg">
<path opacity="0.2" d="M17.1834 7.264C16.3084 3.414 12.9501 1.68066 10.0001 1.68066C10.0001 1.68066 10.0001 1.68066 9.99175 1.68066C7.05008 1.68066 3.68341 3.40566 2.80841 7.25566C1.83341 11.5557 4.46675 15.1973 6.85008 17.489C7.73341 18.339 8.86675 18.764 10.0001 18.764C11.1334 18.764 12.2667 18.339 13.1417 17.489C15.5251 15.1973 18.1584 11.564 17.1834 7.264Z" fill="#484848"/>
<path d="M10 11.439C11.4497 11.439 12.625 10.2637 12.625 8.81397C12.625 7.36422 11.4497 6.18896 10 6.18896C8.55025 6.18896 7.375 7.36422 7.375 8.81397C7.375 10.2637 8.55025 11.439 10 11.439Z" fill="#484848"/>
</svg>
